<?xml version="1.0" standalone="no"?>
<!DOCTYPE svg PUBLIC "-//W3C//DTD SVG 20010904//EN"
 "http://www.w3.org/TR/2001/REC-SVG-20010904/DTD/svg10.dtd">
<svg version="1.0" xmlns="http://www.w3.org/2000/svg"
 width="1952.000000pt" height="1849.000000pt" viewBox="0 0 1952.000000 1849.000000"
 preserveAspectRatio="xMidYMid meet">

<g transform="translate(0.000000,1849.000000) scale(0.100000,-0.100000)"
fill="#000000" stroke="none">
<path d="M0 9245 l0 -9245 9760 0 9760 0 0 9245 0 9245 -9760 0 -9760 0 0
-9245z m10615 5335 c675 -62 1261 -326 1724 -775 226 -220 421 -484 546 -740
143 -293 201 -512 212 -800 13 -357 -92 -709 -290 -971 -128 -170 -263 -287
-517 -449 -225 -144 -309 -197 -390 -245 -52 -32 -131 -80 -175 -107 -44 -27
-105 -65 -135 -83 -30 -19 -129 -79 -220 -135 -91 -56 -200 -123 -242 -149
-43 -26 -80 -51 -83 -55 -2 -5 9 -48 25 -97 83 -243 67 -519 -43 -765 -74
-168 -255 -368 -417 -462 -58 -33 -227 -95 -305 -111 l-60 -12 -3 -60 c-10
-206 114 -422 296 -517 150 -78 5 -72 1702 -72 l1515 0 125 23 c576 108 1054
480 1285 1000 125 284 182 607 156 890 -49 535 -294 986 -697 1285 -180 134
-377 227 -590 281 -178 44 -265 56 -422 56 -145 0 -181 11 -220 70 -18 27 -23
44 -19 73 12 92 71 127 215 127 389 0 789 -119 1102 -329 126 -85 186 -134
303 -249 387 -382 599 -897 598 -1460 0 -300 -51 -538 -176 -832 -191 -448
-582 -837 -1039 -1036 -210 -91 -388 -136 -607 -152 -57 -5 -761 -6 -1564 -4
-1403 3 -1464 4 -1560 23 -59 12 -132 35 -180 57 -76 36 -205 127 -253 181
-144 161 -210 319 -221 531 l-6 115 -40 8 c-95 19 -190 50 -267 85 -107 50
-253 164 -330 258 l-61 74 -31 -19 c-175 -105 -380 -229 -430 -260 -33 -20
-128 -77 -211 -126 -82 -48 -177 -105 -210 -126 -33 -20 -148 -89 -255 -152
-107 -63 -231 -136 -275 -162 -194 -115 -550 -270 -772 -337 -377 -112 -708
-155 -1123 -145 -379 9 -622 61 -893 190 -284 135 -507 316 -715 578 -76 96
-150 209 -137 209 3 0 22 -26 42 -57 150 -238 397 -481 625 -616 380 -226 752
-311 1268 -293 191 7 464 37 560 61 l55 13 -87 -4 c-83 -4 -88 -3 -88 16 0 13
7 20 18 20 10 0 23 5 30 12 9 9 12 9 12 0 0 -7 -4 -12 -8 -12 -5 0 -17 -7 -28
-15 -18 -13 -18 -14 4 -8 13 3 31 17 40 31 15 23 15 25 -6 42 -12 10 -22 22
-22 26 0 4 5 3 12 -4 9 -9 15 -9 27 1 12 10 13 9 7 -1 -5 -9 0 -22 14 -37 26
-27 40 -24 41 8 0 21 1 21 11 -3 6 -14 10 -29 9 -34 -1 -5 5 -4 13 3 9 7 14
17 11 21 -3 5 1 11 7 14 7 3 3 3 -8 1 -18 -5 -26 2 -42 36 -22 44 -21 59 4 59
8 0 14 9 14 20 0 15 7 20 27 20 14 0 24 3 20 6 -9 9 -161 -17 -175 -31 -11 -9
-10 -12 3 -12 8 0 15 3 15 6 0 11 51 11 68 1 12 -6 13 -9 3 -10 -7 0 -11 -6
-8 -13 3 -7 -4 -19 -14 -25 -13 -8 -19 -9 -19 -1 0 16 -23 34 -50 38 -47 6
-145 1 -210 -11 -44 -9 -161 -13 -360 -13 -271 1 -304 2 -400 24 -164 36 -360
92 -385 110 -5 5 -30 16 -55 25 -50 19 -197 103 -206 117 -3 5 23 -7 57 -27
140 -82 370 -169 514 -194 39 -6 88 -17 110 -23 27 -8 144 -12 355 -12 349 0
407 7 745 82 357 79 722 234 1110 470 60 37 597 358 965 578 146 87 268 161
272 164 4 3 -4 42 -17 85 -31 102 -47 248 -39 361 5 75 35 236 60 321 4 17 -1
25 -23 36 -15 9 -125 73 -243 143 -118 70 -255 151 -305 180 -49 29 -127 75
-173 104 -46 28 -85 51 -88 51 -2 0 -52 29 -111 64 -557 329 -765 447 -957
543 -287 144 -490 223 -726 283 -349 89 -653 100 -955 34 -66 -14 -131 -28
-145 -31 -14 -3 -22 -2 -18 1 8 9 168 51 253 67 33 6 63 16 67 22 6 9 8 8 8
-2 0 -10 3 -11 14 -2 20 17 388 7 491 -12 44 -9 98 -18 120 -21 22 -3 68 -12
103 -20 34 -8 63 -14 65 -14 1 0 54 -16 118 -36 128 -40 133 -41 124 -26 -3 6
-14 10 -25 10 -10 0 -20 7 -24 15 -3 8 -12 12 -19 9 -8 -3 -21 1 -28 9 -8 7
-20 12 -27 9 -7 -2 -36 2 -65 9 -29 7 -44 15 -34 17 9 2 17 8 17 13 0 11 -27
12 -34 1 -6 -10 -66 -3 -82 9 -6 5 -19 7 -28 3 -9 -3 -16 -1 -16 4 0 11 38 28
53 24 4 -1 7 2 7 7 0 5 8 7 19 4 10 -2 35 0 55 5 26 8 34 7 30 0 -5 -8 1 -9
17 -3 13 4 37 8 52 8 20 0 24 2 15 8 -10 7 -8 9 7 10 l20 0 -20 9 c-11 5 -16
9 -12 9 4 1 3 10 -3 21 -6 11 -15 18 -20 15 -11 -7 -40 5 -40 17 0 5 8 7 18 5
9 -3 35 -8 57 -11 61 -9 12 9 -107 40 -96 24 -101 24 -114 7 -13 -17 -14 -17
-8 0 3 9 2 17 -2 18 -5 0 -17 2 -26 4 -10 2 -17 0 -17 -3 4 -27 -2 -34 -16
-22 -8 7 -13 16 -10 20 14 22 -173 50 -375 55 -131 4 -179 0 -305 -20 -333
-54 -488 -105 -740 -242 -225 -122 -471 -349 -635 -585 -29 -43 -56 -76 -58
-73 -2 2 15 32 38 67 142 210 345 410 559 549 225 148 571 269 880 308 107 14
368 14 486 1 284 -33 664 -142 945 -273 236 -109 397 -192 574 -295 49 -29 91
-52 93 -52 2 0 20 -11 41 -24 20 -13 127 -77 237 -141 729 -430 1019 -601
1101 -651 39 -24 75 -44 81 -44 6 0 39 31 73 70 136 154 353 276 557 314 l68
12 5 210 c4 184 7 213 24 241 53 86 178 69 215 -30 7 -17 11 -111 11 -228 l0
-199 26 0 c62 0 172 -35 287 -91 114 -56 187 -110 276 -201 l79 -81 54 31 c46
27 284 173 643 397 50 30 178 110 285 176 107 67 218 136 245 154 28 18 88 57
135 88 104 67 259 212 335 313 67 89 154 267 189 385 35 123 59 324 51 434
-11 147 -34 262 -81 405 -157 471 -508 916 -962 1221 -196 132 -365 213 -607
292 -254 84 -389 110 -640 127 -636 42 -1281 -171 -1784 -589 -184 -152 -339
-331 -522 -601 -51 -75 -74 -100 -109 -117 -68 -35 -98 -30 -225 36 -382 200
-793 213 -1170 37 -175 -82 -320 -197 -447 -354 -107 -134 -201 -301 -258
-462 -40 -111 -69 -140 -137 -140 -52 0 -102 26 -123 64 -19 37 -7 106 38 216
194 471 526 813 932 958 187 67 370 102 539 102 231 0 437 -48 703 -164 l37
-16 25 33 c14 17 65 84 114 147 276 356 550 592 937 805 85 46 294 135 416
175 339 112 754 161 1094 130z m-698 -1098 c43 -23 93 -73 120 -125 16 -30 17
-92 17 -842 l-1 -810 -22 -50 c-54 -121 -169 -177 -301 -145 -72 17 -165 103
-177 162 -8 41 -9 41 -70 54 -74 15 -116 34 -166 75 -105 87 -151 236 -113
364 l15 48 -45 45 c-88 88 -129 205 -112 324 13 94 44 153 115 218 l58 53 -3
88 c-4 77 -1 95 21 143 46 100 162 196 236 196 35 0 42 7 68 61 40 85 101 140
178 160 48 13 138 3 182 -19z m571 8 c70 -32 109 -68 143 -135 30 -58 37 -64
72 -69 84 -14 175 -82 222 -167 28 -50 30 -61 30 -160 l0 -106 41 -31 c23 -17
60 -58 81 -91 96 -143 78 -330 -44 -461 l-54 -59 17 -72 c14 -59 15 -81 6
-130 -15 -81 -47 -142 -103 -194 -53 -50 -101 -73 -174 -83 -49 -7 -51 -8 -77
-63 -62 -131 -184 -191 -319 -159 -61 15 -128 70 -162 135 -22 40 -22 41 -25
853 -2 775 -2 815 16 855 59 132 206 193 330 137z m-4173 -1790 c4 -6 11 -8
16 -5 5 4 9 1 9 -4 0 -14 -17 -14 -25 -1 -4 6 -11 8 -16 5 -5 -4 -9 -1 -9 4 0
14 17 14 25 1z m-38 -166 c-3 -3 -12 -4 -19 -1 -8 3 -5 6 6 6 11 1 17 -2 13
-5z m98 -14 c3 -6 -1 -7 -9 -4 -18 7 -21 14 -7 14 6 0 13 -4 16 -10z m-1020
-100 c-3 -5 -12 -10 -18 -10 -7 0 -6 4 3 10 19 12 23 12 15 0z m-66 -24 c-2
-2 -56 -30 -119 -62 -105 -52 -211 -118 -304 -189 -20 -15 -36 -23 -36 -19 1
10 101 84 205 150 82 52 280 146 254 120z m-555 -367 c-143 -140 -296 -359
-375 -537 -17 -40 -34 -71 -36 -69 -5 6 63 160 97 216 58 100 126 197 199 286
36 43 193 196 198 192 2 -2 -35 -42 -83 -88z m-509 -255 c-31 -52 -95 -182
-115 -232 -7 -18 -15 -31 -17 -28 -6 6 88 214 120 264 37 57 46 54 12 -4z
m9219 -48 c113 -47 127 -214 25 -285 l-38 -26 -1 -92 0 -93 223 0 c182 0 233
-3 273 -17 139 -47 233 -163 251 -313 l8 -65 37 -6 c43 -7 61 -20 100 -73 28
-39 28 -40 28 -187 0 -81 -4 -159 -9 -172 -15 -38 -80 -96 -115 -103 -31 -5
-32 -6 -43 -89 -6 -45 -21 -102 -33 -125 -35 -68 -104 -134 -173 -166 l-62
-29 -550 0 -550 0 -56 28 c-63 31 -136 103 -169 166 -11 23 -26 80 -32 126
l-11 83 -44 13 c-45 12 -96 60 -114 106 -15 39 -11 278 5 316 20 48 63 86 115
101 l46 13 6 67 c12 142 110 264 245 306 58 18 93 20 285 20 l219 0 0 89 0 88
-50 50 c-49 49 -50 51 -50 110 0 69 23 112 79 150 40 27 104 30 155 9z m-6880
-216 c173 -54 286 -212 286 -401 0 -71 -34 -189 -54 -189 -7 0 -29 18 -50 39
-33 34 -37 44 -31 68 3 15 6 56 6 91 -1 147 -108 265 -253 279 -86 8 -152 -14
-216 -72 -147 -133 -122 -370 48 -458 66 -35 65 -57 -12 -192 -35 -60 -92
-163 -126 -227 -60 -113 -62 -119 -56 -171 8 -64 -8 -101 -63 -146 -72 -60
-174 -33 -219 56 -37 74 -7 166 67 204 21 10 49 19 63 19 15 0 32 10 41 23 31
43 185 329 185 343 0 9 -19 34 -43 57 -89 89 -136 247 -107 368 25 107 102
218 187 270 95 59 232 74 347 39z m-2514 -141 c-87 -284 -118 -638 -76 -887 8
-48 17 -105 20 -127 10 -70 17 -97 53 -215 37 -119 52 -154 134 -328 27 -57
45 -101 40 -98 -15 9 -117 226 -149 316 -95 266 -125 437 -125 705 0 206 17
358 57 518 24 94 76 250 82 244 2 -1 -14 -59 -36 -128z m249 -28 c-12 -34 -23
-60 -25 -58 -2 2 6 32 17 66 12 34 23 60 25 58 2 -2 -6 -32 -17 -66z m-35
-105 c-3 -15 -8 -25 -11 -23 -2 3 -1 17 3 31 3 15 8 25 11 23 2 -3 1 -17 -3
-31z m2243 18 c38 -19 77 -66 86 -104 6 -26 -3 -74 -23 -125 -12 -29 -8 -38
78 -190 118 -208 111 -199 147 -185 95 36 224 31 308 -12 72 -37 161 -131 198
-211 32 -67 34 -79 34 -177 0 -102 -1 -109 -37 -181 -46 -93 -112 -158 -206
-202 -62 -30 -75 -32 -167 -31 -138 1 -197 24 -287 115 -38 37 -68 71 -68 76
0 5 24 21 54 35 l55 27 38 -34 c132 -121 291 -121 408 -1 77 79 102 176 70
279 -56 184 -265 270 -416 170 -63 -42 -80 -31 -166 117 -40 69 -99 171 -129
228 -48 87 -61 105 -92 118 -79 32 -120 99 -107 174 9 51 38 88 89 111 51 23
88 24 133 3z m-2277 -159 c-11 -49 -18 -70 -15 -45 5 59 27 158 31 145 2 -5
-5 -50 -16 -100z m-24 -157 c-3 -35 -7 -91 -8 -126 -1 -34 -4 -60 -7 -56 -11
11 4 244 16 244 3 0 3 -28 -1 -62z m-3 -323 c3 -64 2 -93 -3 -70 -11 58 -18
198 -10 188 4 -4 10 -57 13 -118z m1717 0 c0 -47 -3 -57 -25 -71 -14 -9 -28
-14 -32 -10 -3 3 -2 6 3 6 22 1 36 20 41 54 8 61 2 67 -54 52 -179 -48 -293
-199 -293 -389 0 -155 73 -281 210 -361 25 -14 41 -26 35 -26 -5 0 -33 13 -60
29 -224 128 -266 451 -84 646 61 65 101 90 179 111 78 22 80 21 80 -41z m-106
-114 c-42 -30 -81 -71 -107 -111 -10 -13 -17 -21 -17 -17 0 32 122 156 154
157 5 0 -9 -13 -30 -29z m-1567 -161 c68 -308 230 -608 455 -841 75 -78 203
-186 271 -228 21 -13 36 -25 33 -28 -2 -3 -40 19 -83 48 -110 75 -335 303
-413 419 -86 128 -194 345 -231 465 -35 112 -69 267 -68 305 l2 25 4 -25 c2
-14 16 -77 30 -140z m2753 52 c41 -22 80 -90 80 -140 0 -46 -35 -109 -73 -132
-21 -13 -50 -20 -87 -20 -53 0 -55 1 -107 56 -51 54 -55 56 -101 54 -96 -5
-345 0 -339 7 6 5 79 11 165 13 12 0 22 4 22 8 0 5 -10 8 -22 7 -31 -2 -54 21
-39 39 9 11 6 15 -11 20 -43 11 -203 7 -220 -6 -9 -8 -18 -36 -21 -70 -7 -73
-46 -147 -108 -202 -45 -41 -85 -58 -159 -70 l-35 -5 35 10 c92 28 123 44 164
84 54 52 75 98 86 185 14 102 7 100 296 100 l243 0 33 28 c18 16 42 34 53 40
31 17 106 14 145 -6z m-1316 -64 c-8 -46 -14 -62 -20 -55 -6 5 14 87 21 87 3
0 2 -15 -1 -32z m-4 -89 c0 -5 -4 -9 -10 -9 -5 0 -10 7 -10 16 0 8 5 12 10 9
6 -3 10 -10 10 -16z m53 -153 c40 -52 89 -86 154 -106 44 -14 51 -19 29 -19
-34 -1 -121 41 -159 77 -40 38 -74 100 -82 147 -6 38 -5 38 13 -12 10 -28 31
-67 45 -87z m621 77 c-9 -51 -56 -144 -95 -188 -35 -39 -117 -100 -125 -92 -3
3 10 14 29 26 81 50 153 150 177 249 13 52 23 56 14 5z m-264 -300 c-20 -9
-70 -17 -115 -19 l-80 -3 80 9 c44 4 91 13 105 18 40 17 49 12 10 -5z m3444
-922 c53 -50 51 -145 -3 -193 l-31 -28 -413 0 c-226 0 -466 -5 -532 -10 -386
-33 -711 -170 -941 -396 -108 -107 -192 -231 -294 -434 -75 -150 -113 -251
-272 -722 l-123 -368 -136 0 -136 0 -37 118 c-21 64 -71 220 -112 345 -41 126
-74 235 -72 243 3 13 68 -172 154 -438 21 -65 41 -118 44 -118 3 0 3 22 2 50
-3 34 -8 48 -15 43 -7 -4 -6 1 2 10 7 9 11 30 9 47 -4 24 -1 30 14 30 10 0 21
7 24 15 4 8 10 13 14 10 4 -3 11 2 14 11 4 10 2 13 -7 8 -6 -4 -3 2 8 13 12
12 21 15 23 9 2 -6 6 -18 9 -26 4 -8 7 -18 7 -22 1 -3 4 -10 9 -14 10 -11 9
-34 -3 -34 -5 0 -7 8 -4 18 4 13 2 12 -7 -3 -7 -11 -17 -23 -22 -27 -6 -3 -11
-31 -11 -62 0 -31 -4 -56 -9 -56 -4 0 -5 5 -2 10 3 6 1 10 -4 10 -14 0 -14 -3
0 -34 10 -20 9 -28 -5 -41 -16 -16 -41 -12 -31 6 4 5 1 9 -5 9 -7 0 -9 -7 -6
-16 3 -9 6 -20 6 -26 0 -6 7 -8 15 -4 9 3 15 0 15 -10 0 -8 -4 -13 -9 -10 -5
4 -6 -5 -2 -21 8 -32 10 -32 136 -23 95 6 98 7 68 19 -28 11 -33 18 -33 46 0
19 4 44 9 58 5 13 6 30 1 37 -4 7 -4 25 0 40 4 16 4 32 -1 37 -12 12 19 76 32
68 5 -4 9 0 10 7 0 16 22 -31 23 -52 1 -8 -6 -15 -14 -15 -8 0 -14 6 -12 13 1
6 -2 12 -8 12 -17 0 -11 -18 12 -34 12 -9 19 -16 15 -16 -4 0 1 -10 13 -22 11
-12 17 -24 13 -27 -15 -11 -13 -39 3 -45 10 -4 14 -12 9 -24 -4 -11 -3 -14 4
-7 13 13 26 67 15 63 -9 -3 -14 5 -14 22 0 5 6 8 13 6 6 -1 9 -1 5 1 -15 8 -8
25 7 19 8 -3 15 -1 15 4 0 6 -5 10 -11 10 -12 0 -3 39 13 55 6 6 7 -1 2 -20
-11 -49 11 -17 31 44 15 47 16 55 2 68 -11 12 -16 12 -22 2 -5 -7 -4 -10 3 -5
17 10 20 -7 6 -39 l-13 -30 -1 27 c0 14 -6 28 -12 31 -10 3 -9 8 2 22 14 17
14 18 -9 6 -19 -11 -22 -11 -15 0 11 18 13 49 2 49 -4 0 -8 9 -8 20 0 11 5 20
11 20 5 0 7 5 4 10 -13 21 -15 61 -5 80 8 16 7 26 -5 42 -15 22 -19 19 -16
-14 1 -10 -3 -18 -9 -18 -6 0 -11 10 -10 23 5 51 -4 35 -51 -108 -51 -152 -85
-223 -50 -104 77 257 169 542 213 654 175 447 405 722 768 918 163 88 343 147
550 181 134 22 150 23 682 22 l476 -1 26 -24z m-2791 -24 c2 -7 1 -23 -3 -37
l-6 -25 -13 24 c-11 19 -11 25 0 32 10 6 11 9 2 9 -7 0 -13 4 -13 10 0 13 27
2 33 -13z m-1653 -1058 c172 -47 296 -161 357 -326 12 -35 19 -63 14 -63 -4 0
-16 26 -26 58 -67 218 -293 352 -574 340 -89 -4 -119 -10 -189 -37 -92 -36
-178 -99 -232 -169 -46 -60 -59 -84 -87 -162 -16 -41 -22 -52 -19 -30 10 58
70 172 120 227 150 166 395 229 636 162z m6355 -4 c95 -31 153 -67 217 -132
105 -108 159 -239 161 -393 2 -160 -50 -287 -163 -400 -122 -122 -248 -166
-452 -158 -98 5 -137 11 -192 31 -171 63 -306 210 -350 383 -36 141 -9 322 65
439 72 113 197 205 324 239 91 24 102 25 210 21 76 -2 119 -9 180 -30z m-8187
-3 l-98 -3 0 -525 0 -525 103 3 102 3 6 55 c5 50 6 51 8 15 1 -22 4 -50 7 -62
4 -23 3 -23 -119 -23 l-122 0 3 532 c1 293 2 535 2 538 0 3 46 3 102 0 l103
-5 -97 -3z m768 8 l104 0 0 -535 0 -535 -120 0 -120 0 2 193 3 192 2 -188 3
-188 108 3 107 3 0 520 0 520 -107 3 c-95 2 -107 1 -111 -15 -3 -11 -5 -7 -6
11 -1 22 3 27 15 22 9 -3 63 -6 120 -6z m1838 -155 c26 -82 64 -204 85 -270
68 -209 93 -295 89 -306 -4 -11 -21 39 -128 381 -34 107 -66 206 -73 220 -6
14 -16 45 -22 70 l-10 45 -118 3 -119 3 7 -23 c4 -13 32 -95 62 -183 30 -88
69 -203 85 -255 17 -52 53 -160 81 -240 46 -134 105 -310 112 -336 2 -8 44
-12 125 -12 116 -1 121 0 130 21 4 12 29 90 56 172 26 83 52 155 57 160 7 7 8
4 3 -8 -7 -22 -72 -231 -93 -304 l-16 -53 -137 0 -137 0 -32 108 c-18 59 -79
244 -136 412 -56 168 -120 360 -142 427 l-40 122 126 3 c69 2 129 1 132 -2 4
-3 28 -72 53 -155z m720 27 c49 -151 181 -564 191 -599 3 -12 1 -24 -5 -28 -5
-3 -10 1 -10 11 0 21 -47 171 -117 379 -30 88 -59 175 -64 193 -6 18 -13 31
-17 28 -4 -2 -8 13 -8 33 -1 21 -9 52 -18 70 l-17 32 -102 -3 -102 -3 -120
-360 c-131 -391 -137 -407 -128 -355 4 19 28 100 55 180 28 80 77 231 110 335
33 105 64 198 69 208 9 15 25 17 124 16 l114 -1 45 -136z m1432 61 c20 -43 41
-91 49 -108 15 -34 110 -248 195 -440 32 -71 92 -202 133 -290 l74 -160 -126
-5 c-69 -3 -130 -2 -135 2 -5 4 -31 56 -57 115 l-47 108 -253 -2 -254 -2 -45
-112 -45 -111 -128 -1 c-70 -1 -127 -1 -127 0 0 7 124 291 142 327 11 22 51
112 88 201 38 88 91 212 120 275 28 63 67 152 87 198 l36 82 129 0 129 0 35
-77z m794 -288 c5 -344 6 -362 27 -400 38 -72 91 -106 185 -120 60 -9 147 16
191 55 20 17 43 53 56 86 20 53 21 72 21 400 l0 345 123 -3 122 -3 3 -325 c3
-371 -3 -434 -53 -536 -77 -158 -215 -234 -430 -236 -251 -2 -421 115 -475
327 -18 71 -20 111 -20 427 l0 349 123 -3 122 -3 5 -360z m1788 263 l3 -98
-173 -2 -173 -3 -3 -443 -2 -443 -123 3 -122 3 -2 410 c-1 226 -2 425 -3 443
l0 32 -165 0 -165 0 0 100 0 100 463 -2 462 -3 3 -97z m1645 60 c13 -24 71
-119 128 -213 56 -93 135 -225 175 -292 l71 -123 133 228 c74 125 160 272 192
326 32 55 58 104 58 108 0 4 52 8 115 8 l115 0 -2 -542 -3 -543 -117 -3 -118
-3 0 321 c0 177 -4 319 -9 316 -4 -3 -32 -47 -61 -98 -29 -51 -96 -166 -149
-255 l-96 -163 -57 0 -57 0 -45 73 c-24 39 -96 157 -158 261 l-113 190 -3
-322 -2 -323 -118 3 -117 3 -3 543 -2 542 109 0 109 0 25 -42z m1867 -30 c18
-40 52 -116 75 -168 36 -80 84 -186 217 -480 83 -181 142 -309 154 -334 8 -16
14 -31 14 -33 0 -1 -60 -3 -133 -3 l-134 0 -50 113 -51 112 -257 0 -257 0 -41
-100 c-23 -55 -46 -105 -50 -112 -5 -9 -46 -12 -132 -12 l-125 0 16 37 c9 20
24 57 34 82 10 25 32 74 50 110 17 36 53 117 80 180 48 115 288 658 297 673 2
4 62 7 132 7 l128 0 33 -72z m1300 -28 l0 -100 -167 -2 -168 -3 -3 -442 -2
-443 -125 0 -125 0 -2 108 c0 59 -2 258 -2 442 l-1 335 -167 3 -168 2 0 100 0
100 465 0 465 0 0 -100z m960 0 l0 -100 -285 0 -285 0 0 -115 0 -115 250 0
250 0 0 -100 0 -100 -250 0 -250 0 0 -125 0 -125 297 -2 297 -3 -1 -100 -2
-100 -420 -2 -421 -2 0 544 0 545 410 0 410 0 0 -100z m-12990 80 c0 -5 -2
-10 -4 -10 -3 0 -8 5 -11 10 -3 6 -1 10 4 10 6 0 11 -4 11 -10z m517 -122 c-2
-18 -4 -6 -4 27 0 33 2 48 4 33 2 -15 2 -42 0 -60z m2613 8 c0 -3 -4 -8 -10
-11 -5 -3 -10 -1 -10 4 0 6 5 11 10 11 6 0 10 -2 10 -4z m-1465 -71 c86 -39
165 -132 193 -225 46 -150 -15 -327 -146 -419 -18 -13 -35 -21 -38 -18 -3 2
10 13 29 24 42 25 101 97 126 154 59 133 23 320 -78 412 -74 66 -114 81 -221
82 -52 0 -106 -4 -120 -8 -20 -6 -22 -6 -7 3 54 34 182 32 262 -5z m1517 17
c6 8 7 4 3 -12 -11 -40 -23 -46 -35 -16 -15 39 -12 50 6 31 14 -13 19 -14 26
-3z m-42 -44 c0 -18 -26 5 -27 25 -2 21 -1 21 13 3 8 -11 14 -23 14 -28z
m-1797 -7 c-103 -74 -155 -176 -155 -301 -1 -139 71 -259 190 -317 51 -25 68
-28 154 -28 54 1 92 -3 85 -7 -21 -14 -162 -9 -208 7 -173 60 -276 266 -223
444 22 77 69 146 128 191 28 22 55 40 60 40 5 0 -9 -13 -31 -29z m1804 -48 c0
-10 -4 -10 -16 -1 -9 7 -18 13 -20 15 -2 1 5 1 16 0 11 0 20 -7 20 -14z m41
-73 c10 0 13 -3 7 -8 -13 -9 -18 -35 -5 -27 5 3 10 1 10 -4 0 -6 -7 -11 -15
-11 -8 0 -15 -4 -15 -10 0 -5 -5 -10 -11 -10 -5 0 -7 5 -4 10 3 6 2 10 -3 10
-6 0 -13 -11 -16 -25 -4 -14 -11 -25 -16 -25 -12 0 -24 45 -15 59 3 6 1 11 -4
11 -6 0 -11 4 -11 9 0 6 9 9 19 8 11 0 18 -4 15 -8 -2 -4 1 -11 7 -15 9 -5 10
1 5 19 -4 19 -2 26 11 29 10 2 20 0 21 -4 2 -4 11 -8 20 -8z m-220 -180 c-29
-89 -54 -157 -56 -151 -2 5 16 70 39 143 50 162 58 182 65 176 3 -3 -19 -79
-48 -168z m-863 44 c4 -34 3 -69 -1 -77 -6 -10 -10 4 -11 41 -1 31 -5 73 -8
92 -4 25 -3 31 4 20 5 -8 13 -42 16 -76z m-1617 61 c-9 -9 -388 -13 -438 -5
-25 4 62 8 199 8 134 1 242 0 239 -3z m459 -67 c-2 -13 -4 -5 -4 17 -1 22 1
32 4 23 2 -10 2 -28 0 -40z m2193 2 c0 -5 -2 -10 -4 -10 -3 0 -8 5 -11 10 -3
6 -1 10 4 10 6 0 11 -4 11 -10z m400 -10 c0 -5 -5 -10 -11 -10 -5 0 -7 5 -4
10 3 6 8 10 11 10 2 0 4 -4 4 -10z m15 -20 c-3 -5 -12 -10 -18 -10 -7 0 -6 4
3 10 19 12 23 12 15 0z m-385 -10 c0 -5 -4 -10 -10 -10 -5 0 -10 5 -10 10 0 6
5 10 10 10 6 0 10 -4 10 -10z m353 -30 c3 -11 1 -18 -4 -14 -5 3 -9 12 -9 20
0 20 7 17 13 -6z m-2511 -230 c86 -179 311 -299 538 -288 38 1 70 -1 70 -6 0
-5 -52 -7 -117 -4 -142 6 -227 32 -332 102 -118 79 -208 224 -225 362 -5 42
-3 38 14 -26 11 -41 35 -104 52 -140z m-732 179 l205 -3 -240 -6 -240 -5 -6
-65 -6 -65 -1 66 c-1 36 3 70 8 75 6 6 25 9 43 8 17 -1 124 -4 237 -5z m1817
-26 c-3 -10 -5 -4 -5 12 0 17 2 24 5 18 2 -7 2 -21 0 -30z m1433 27 c0 -5 -8
-10 -17 -10 -15 0 -16 2 -3 10 19 12 20 12 20 0z m-1443 -72 c-3 -8 -6 -5 -6
6 -1 11 2 17 5 13 3 -3 4 -12 1 -19z m1203 -8 c0 -5 -4 -12 -10 -15 -5 -3 -10
-4 -10 -1 0 2 -3 12 -6 20 -5 12 -2 15 10 10 9 -3 16 -10 16 -14z m200 -20 c0
-5 -2 -10 -4 -10 -3 0 -8 5 -11 10 -3 6 -1 10 4 10 6 0 11 -4 11 -10z m-1438
-73 c-55 -111 -193 -239 -282 -261 -14 -4 4 9 40 28 101 53 206 167 246 265 9
23 19 39 22 37 3 -3 -9 -34 -26 -69z m1478 63 c0 -5 -2 -10 -4 -10 -3 0 -8 5
-11 10 -3 6 -1 10 4 10 6 0 11 -4 11 -10z m61 -7 c13 -16 12 -17 -3 -4 -10 7
-18 15 -18 17 0 8 8 3 21 -13z m-176 -43 c3 -5 -1 -10 -10 -10 -9 0 -13 5 -10
10 3 6 8 10 10 10 2 0 7 -4 10 -10z m165 -14 c0 -16 -18 -31 -27 -22 -8 8 5
36 17 36 5 0 10 -6 10 -14z m-226 -14 c2 -4 1 -14 -3 -21 -6 -9 -10 -7 -14 8
-5 20 7 29 17 13z m-3344 -67 c0 -14 -4 -25 -9 -25 -5 0 -8 11 -7 25 1 33 16
33 16 0z m3345 5 c3 -5 1 -10 -4 -10 -6 0 -11 5 -11 10 0 6 2 10 4 10 3 0 8
-4 11 -10z m-3354 -67 c-8 -15 -10 -15 -11 -2 0 17 10 32 18 25 2 -3 -1 -13
-7 -23z m1694 -143 c-11 -5 -31 -8 -45 -8 -23 0 -22 1 5 8 42 11 65 11 40 0z"/>
<path d="M7110 13440 c-92 -9 -217 -37 -247 -56 -12 -8 -32 -14 -45 -14 -17 0
-19 -3 -10 -12 7 -7 12 -20 12 -31 0 -11 5 -15 11 -11 7 4 7 -1 -1 -16 -6 -12
-9 -24 -6 -28 3 -3 6 0 6 6 0 18 30 14 31 -3 1 -8 2 -19 3 -24 0 -5 12 -18 25
-28 22 -18 22 -51 0 -38 -5 4 -9 0 -9 -8 0 -11 13 -11 81 4 90 19 109 29 59
29 -18 0 -31 2 -29 5 7 7 96 14 183 14 44 1 76 4 72 9 -4 4 -12 8 -17 8 -5 1
-13 2 -18 3 -11 1 -8 42 4 62 8 12 6 12 -8 0 -15 -12 -17 -11 -17 8 0 26 3 37
11 34 3 -1 6 5 6 13 0 12 -3 12 -16 0 -9 -7 -22 -11 -28 -9 -18 6 -16 -7 4
-29 13 -14 13 -18 2 -18 -11 0 -11 -2 1 -10 12 -8 9 -10 -12 -10 -15 0 -29 -4
-32 -9 -3 -4 6 -7 21 -5 18 2 22 -1 15 -8 -6 -6 -22 -8 -38 -4 -19 5 -24 10
-16 18 8 8 8 17 0 32 -9 17 -8 19 3 9 7 -7 20 -13 29 -13 11 0 10 5 -6 18 -20
15 -41 97 -23 86 4 -2 10 0 14 6 3 5 24 10 46 10 24 0 38 4 34 10 -3 6 -9 9
-13 8 -4 0 -41 -4 -82 -8z m-80 -74 c0 -2 -6 -9 -13 -15 -10 -8 -14 -7 -14 4
0 8 6 15 14 15 7 0 13 -2 13 -4z m-12 -60 c-1 -14 -6 -22 -10 -20 -5 3 -5 10
-2 16 4 7 2 8 -4 4 -6 -4 -9 -13 -6 -20 5 -13 -24 -31 -34 -21 -3 3 0 5 6 5 7
0 12 7 12 16 0 9 8 23 18 30 22 18 22 18 20 -10z m50 -14 c-10 -2 -18 -10 -18
-18 0 -8 -5 -12 -10 -9 -18 11 8 45 28 37 16 -6 16 -7 0 -10z m-169 1 c0 -5
-4 -17 -9 -28 -8 -17 -8 -16 -7 8 1 15 5 27 9 27 4 0 8 -3 7 -7z"/>
<path d="M7180 13399 c-15 -27 -10 -31 13 -9 11 11 14 20 8 24 -5 4 -15 -3
-21 -15z"/>
<path d="M6722 13331 c-11 -7 -11 -9 1 -14 16 -6 27 0 27 15 0 10 -11 10 -28
-1z"/>
<path d="M6724 13260 c1 -25 -2 -51 -7 -57 -6 -9 -6 -13 2 -13 6 0 11 1 11 3
0 1 4 16 9 33 6 21 5 38 -4 55 -13 22 -13 21 -11 -21z"/>
<path d="M6595 13277 c-11 -7 -22 -14 -25 -17 -3 -3 -18 -12 -35 -19 -17 -8
-24 -16 -17 -18 6 -3 12 -9 12 -14 0 -5 -8 -4 -19 3 -16 9 -30 4 -92 -37 -89
-60 -272 -243 -363 -362 -79 -106 -150 -236 -143 -265 4 -15 2 -18 -10 -14
-12 5 -14 1 -10 -19 3 -19 1 -25 -9 -21 -9 3 -14 -2 -14 -13 0 -11 5 -21 12
-23 8 -3 8 -9 0 -24 -10 -17 -11 -17 -12 -1 0 9 -5 17 -11 17 -7 0 -9 -9 -6
-21 3 -12 3 -18 -1 -15 -9 9 -61 -110 -69 -156 -5 -36 -2 -43 33 -79 32 -33
44 -39 80 -39 32 0 49 7 73 29 17 16 31 36 31 45 0 26 1 30 12 44 7 8 7 16 -1
26 -8 10 -9 16 -1 21 6 3 8 11 4 16 -3 6 1 9 9 7 11 -2 31 27 66 99 27 56 80
148 116 204 66 101 71 124 24 112 -25 -7 -24 8 2 30 16 14 19 15 17 3 -2 -8 2
-14 7 -13 6 1 9 8 9 15 -2 15 12 16 22 1 3 -6 0 -15 -7 -20 -7 -4 -10 -11 -7
-15 4 -3 20 9 35 27 49 58 116 124 168 164 28 22 55 44 60 50 6 5 27 19 48 30
21 11 44 27 50 35 6 8 7 12 3 8 -5 -4 -15 -3 -22 2 -6 6 -16 10 -20 8 -16 -4
-75 33 -69 42 4 6 1 10 -4 10 -6 0 -11 9 -11 21 0 12 -4 18 -11 13 -7 -4 -10
-1 -7 7 6 18 75 20 89 3 13 -16 29 -18 29 -6 0 5 -12 15 -27 22 -23 11 -25 14
-10 17 22 6 12 23 -14 23 -10 0 -19 5 -19 10 0 6 9 10 20 10 11 0 20 -5 20
-11 0 -5 4 -8 9 -4 6 3 8 -4 6 -15 -4 -19 4 -24 35 -21 11 1 12 0 3 -7 -16
-10 -21 -54 -8 -58 6 -2 18 3 29 11 16 12 19 25 15 78 -1 6 2 21 6 32 6 15 5
17 -4 9 -16 -15 -63 5 -56 24 5 14 6 14 -20 -1z m5 -27 c0 -5 -4 -10 -10 -10
-5 0 -10 5 -10 10 0 6 5 10 10 10 6 0 10 -4 10 -10z m36 -35 c-3 -8 -11 -15
-18 -14 -10 0 -10 2 0 6 6 2 10 9 6 14 -3 5 -2 14 2 21 10 16 18 -6 10 -27z
m29 -34 c3 -5 1 -12 -5 -16 -5 -3 -10 1 -10 9 0 18 6 21 15 7z m-435 -221 c0
-11 -2 -20 -4 -20 -2 0 -6 9 -9 20 -3 11 -1 20 4 20 5 0 9 -9 9 -20z m170 -60
c0 -5 -7 -7 -15 -4 -8 4 -15 8 -15 10 0 2 7 4 15 4 8 0 15 -4 15 -10z m-140
-90 c0 -5 -5 -10 -11 -10 -5 0 -7 5 -4 10 3 6 8 10 11 10 2 0 4 -4 4 -10z m42
-22 c-7 -7 -12 -8 -12 -2 0 14 12 26 19 19 2 -3 -1 -11 -7 -17z m-52 -58 c0
-5 -5 -10 -11 -10 -5 0 -7 5 -4 10 3 6 8 10 11 10 2 0 4 -4 4 -10z"/>
<path d="M6702 13245 c4 -4 3 -16 -3 -26 -5 -11 -7 -19 -5 -19 3 0 10 9 16 19
7 15 7 22 -2 27 -7 4 -10 4 -6 -1z"/>
<path d="M6553 13134 c-7 -3 -9 -12 -6 -20 8 -21 19 -17 19 6 0 11 0 20 -1 19
0 0 -5 -3 -12 -5z"/>
<path d="M6658 13112 c4 -10 7 -12 10 -4 2 7 9 9 15 5 7 -3 8 -2 4 2 -14 16
-36 14 -29 -3z"/>
<path d="M6710 13100 c-9 -6 -10 -10 -3 -10 6 0 15 5 18 10 8 12 4 12 -15 0z"/>
<path d="M6758 11603 c7 -3 16 -2 19 1 4 3 -2 6 -13 5 -11 0 -14 -3 -6 -6z"/>
<path d="M6790 11600 c0 -5 5 -10 11 -10 5 0 7 5 4 10 -3 6 -8 10 -11 10 -2 0
-4 -4 -4 -10z"/>
<path d="M6820 11590 c0 -6 7 -10 15 -10 8 0 15 2 15 4 0 2 -7 6 -15 10 -8 3
-15 1 -15 -4z"/>
<path d="M6730 11580 c-8 -5 -12 -11 -9 -14 3 -3 14 1 25 9 21 16 8 20 -16 5z"/>
<path d="M6775 11570 c3 -5 11 -10 16 -10 6 0 7 5 4 10 -3 6 -11 10 -16 10 -6
0 -7 -4 -4 -10z"/>
<path d="M7038 11503 c29 -14 56 -22 59 -19 7 7 -76 46 -97 45 -8 0 9 -12 38
-26z"/>
<path d="M6596 11491 c-3 -5 5 -11 19 -13 28 -6 34 6 9 16 -20 8 -22 8 -28 -3z"/>
<path d="M6650 11488 c0 -4 7 -8 15 -8 8 0 15 4 15 8 0 5 -7 9 -15 9 -8 0 -15
-4 -15 -9z"/>
<path d="M6700 11480 c-12 -8 -10 -10 8 -10 13 0 20 4 17 10 -7 12 -6 12 -25
0z"/>
<path d="M7027 11479 c7 -7 15 -10 18 -7 3 3 -2 9 -12 12 -14 6 -15 5 -6 -5z"/>
<path d="M7110 11469 c0 -7 -9 -9 -22 -6 -12 3 -30 1 -40 -4 -19 -10 -19 -11
4 -31 15 -14 17 -19 6 -15 -18 6 -34 -8 -39 -36 -4 -18 -5 -18 -28 2 -26 22
-43 29 -23 9 16 -16 15 -28 -2 -28 -8 0 -16 -5 -18 -11 -3 -8 -14 -7 -36 5
-17 9 -34 16 -37 16 -3 -1 -22 4 -42 9 -71 20 -43 3 64 -39 59 -23 130 -53
156 -67 36 -18 57 -22 79 -18 18 4 28 3 25 -2 -3 -5 3 -9 14 -8 31 2 38 23 21
57 -10 22 -17 26 -23 17 -5 -9 -9 -6 -14 13 -9 34 -48 56 -70 38 -13 -11 -14
-10 -8 6 6 16 4 17 -8 7 -8 -7 -20 -8 -28 -4 -18 12 -1 20 33 17 18 -2 31 3
39 15 10 16 14 16 27 4 15 -13 74 -10 65 5 -2 4 7 5 20 2 14 -2 25 -8 25 -13
0 -5 7 -9 15 -9 9 0 18 -6 21 -14 3 -8 13 -13 22 -11 9 1 27 -4 40 -12 13 -8
28 -13 34 -11 16 6 -237 128 -263 128 -5 0 -9 -5 -9 -11z m70 -39 c0 -5 -5
-10 -11 -10 -5 0 -7 5 -4 10 3 6 8 10 11 10 2 0 4 -4 4 -10z m-47 -90 c6 -24
1 -25 -19 -5 -9 8 -12 19 -9 25 9 14 21 5 28 -20z m-133 -5 c-12 -15 -30 -12
-30 6 0 5 10 9 21 9 18 0 19 -2 9 -15z m25 -15 c3 -5 -1 -10 -10 -10 -9 0 -13
5 -10 10 3 6 8 10 10 10 2 0 7 -4 10 -10z"/>
<path d="M6915 11441 c-3 -5 -2 -12 3 -15 5 -3 9 1 9 9 0 17 -3 19 -12 6z"/>
<path d="M6980 11426 c0 -9 5 -16 10 -16 6 0 10 4 10 9 0 6 -4 13 -10 16 -5 3
-10 -1 -10 -9z"/>
<path d="M7015 11420 c-3 -5 -2 -10 4 -10 5 0 13 5 16 10 3 6 2 10 -4 10 -5 0
-13 -4 -16 -10z"/>
<path d="M7260 11361 c0 -19 36 -48 47 -38 2 3 -5 8 -16 12 -11 3 -18 12 -15
20 3 7 1 16 -5 20 -7 3 -11 -2 -11 -14z"/>
<path d="M7310 11350 c0 -14 15 -19 29 -11 9 6 7 10 -8 14 -12 3 -21 1 -21 -3z"/>
<path d="M7250 11295 c-7 -13 -17 -22 -21 -19 -5 3 -6 -2 -2 -11 3 -10 0 -21
-8 -26 -11 -7 -11 -9 4 -9 9 0 25 8 36 19 10 10 25 21 32 24 10 4 9 6 -3 6 -9
1 -22 -7 -27 -16 -10 -16 -10 -16 -11 3 0 11 5 25 12 32 6 6 9 14 7 17 -3 3
-12 -6 -19 -20z"/>
<path d="M7306 11298 c3 -5 10 -6 15 -3 13 9 11 12 -6 12 -8 0 -12 -4 -9 -9z"/>
<path d="M7166 11221 c5 -5 20 -12 34 -15 24 -7 24 -6 6 8 -21 17 -57 23 -40
7z"/>
<path d="M7780 11130 c0 -6 7 -10 15 -10 8 0 15 2 15 4 0 2 -7 6 -15 10 -8 3
-15 1 -15 -4z"/>
<path d="M7600 10995 c0 -7 81 -47 86 -43 2 3 -17 14 -41 26 -25 12 -45 20
-45 17z"/>
<path d="M7729 10920 c21 -18 51 -27 51 -16 0 5 -60 36 -69 36 -3 -1 5 -10 18
-20z"/>
<path d="M7835 10860 c3 -5 11 -10 16 -10 6 0 7 5 4 10 -3 6 -11 10 -16 10 -6
0 -7 -4 -4 -10z"/>
<path d="M9920 10410 c-143 -39 -266 -114 -373 -230 -146 -158 -224 -403 -197
-621 27 -224 120 -389 298 -531 196 -155 449 -196 709 -113 387 122 604 548
487 953 -35 121 -95 230 -171 311 -101 109 -189 168 -329 216 -68 24 -98 28
-214 31 -112 3 -148 1 -210 -16z m361 -377 c233 -107 319 -389 186 -616 -88
-150 -290 -229 -464 -183 -222 59 -352 259 -314 483 15 88 27 116 82 190 48
64 111 108 198 140 95 34 218 29 312 -14z"/>
<path d="M8650 8700 c-9 -6 -10 -10 -3 -10 6 0 15 5 18 10 8 12 4 12 -15 0z"/>
<path d="M8583 8666 c-13 -6 -23 -14 -23 -19 0 -4 14 -1 30 8 17 9 30 18 30
20 0 7 -12 4 -37 -9z"/>
<path d="M8409 8560 c-13 -10 -20 -19 -16 -20 11 0 67 29 67 35 0 12 -30 3
-51 -15z"/>
<path d="M7863 8478 c-13 -6 -23 -15 -23 -20 0 -7 31 8 59 29 10 7 -16 1 -36
-9z"/>
<path d="M7785 8433 c-16 -8 -38 -23 -48 -32 -11 -8 -31 -21 -45 -28 -15 -6
-21 -12 -14 -12 14 -1 48 15 66 31 6 5 29 20 51 33 44 27 37 33 -10 8z"/>
<path d="M7648 8322 c-15 -6 -14 -8 6 -18 20 -9 23 -9 18 8 -2 10 -5 18 -6 17
0 0 -9 -3 -18 -7z"/>
<path d="M7475 8265 c-39 -17 -21 -18 25 0 19 7 28 14 20 14 -8 0 -28 -6 -45
-14z"/>
<path d="M7865 8235 c-22 -13 -35 -24 -30 -25 6 0 28 11 50 25 22 13 36 24 30
25 -5 0 -28 -11 -50 -25z"/>
<path d="M7751 8174 c-18 -8 -31 -17 -29 -19 7 -7 78 18 78 27 0 11 -8 9 -49
-8z"/>
<path d="M7140 8134 c-114 -37 -189 -61 -252 -80 -32 -9 -58 -21 -58 -25 0
-11 14 -12 24 -2 3 4 12 8 19 9 7 1 24 5 40 9 24 6 26 5 21 -11 -3 -11 -2 -15
3 -9 4 6 18 16 31 23 18 10 22 10 22 0 0 -7 5 -5 11 5 10 18 12 18 37 -5 14
-12 22 -17 18 -10 -4 6 -3 12 3 12 6 0 8 7 4 16 -5 13 -2 15 13 7 10 -5 36
-11 57 -12 29 -1 37 2 38 16 1 12 3 10 8 -6 4 -14 13 -26 21 -29 9 -2 11 0 5
5 -25 21 -14 38 23 34 6 -1 12 3 12 10 0 6 7 8 18 5 16 -7 16 -6 0 10 -14 15
-20 15 -33 4 -11 -9 -19 -10 -27 -2 -15 15 -1 32 22 27 13 -3 17 1 13 11 -6
17 -2 18 -93 -12z m30 -18 c0 -3 -4 -8 -10 -11 -5 -3 -10 -1 -10 4 0 6 5 11
10 11 6 0 10 -2 10 -4z"/>
<path d="M7550 8070 c-8 -5 -10 -10 -5 -10 6 0 17 5 25 10 8 5 11 10 5 10 -5
0 -17 -5 -25 -10z"/>
<path d="M7246 8052 c-26 -6 -44 -24 -38 -40 6 -18 33 -15 30 4 -2 10 5 18 15
19 13 3 16 -2 13 -22 -4 -19 -2 -22 8 -14 7 6 16 8 20 4 4 -4 11 -1 16 7 7 10
10 11 10 3 0 -7 7 -13 16 -13 14 0 15 -2 3 -17 -12 -15 -12 -16 4 -10 10 4 21
7 23 7 13 0 1 20 -16 25 -11 3 -20 11 -20 16 0 27 -41 42 -84 31z"/>
<path d="M6892 8002 c-4 -10 -7 -11 -12 -2 -4 7 -13 9 -20 5 -9 -6 -6 -12 11
-21 13 -7 18 -13 11 -14 -7 0 -23 7 -36 16 -26 17 -48 2 -27 -19 6 -6 11 -18
11 -26 0 -12 -2 -13 -9 -3 -8 13 -16 7 -34 -25 -8 -13 11 -12 32 1 11 7 13 5
8 -8 -5 -11 -3 -15 5 -10 7 5 9 -1 6 -20 -3 -14 -1 -26 3 -26 5 0 9 5 9 11 0
5 4 8 10 4 5 -3 3 7 -5 22 -13 25 -13 28 0 31 8 2 15 8 15 15 0 6 6 2 14 -9
11 -14 12 -22 3 -34 -6 -8 -2 -7 10 4 13 10 25 27 28 37 9 26 45 26 40 0 -3
-16 4 -20 41 -26 24 -3 44 -10 44 -16 0 -9 -11 -11 -65 -11 -16 0 -33 -5 -37
-12 -6 -8 -11 -7 -18 4 -7 12 -12 12 -22 2 -9 -9 -9 -12 0 -12 7 0 12 -4 12
-9 0 -6 -9 -8 -20 -6 -11 2 -20 -1 -20 -7 0 -6 13 -8 38 -3 55 10 162 47 158
54 -2 3 12 6 32 7 21 0 66 11 102 25 61 22 63 24 35 29 -20 4 -25 8 -15 11 8
4 24 3 35 -1 11 -4 26 -5 33 -2 29 11 -14 22 -88 22 -70 0 -161 11 -220 25
-50 12 -92 11 -98 -3z m18 -72 c0 -5 -5 -10 -11 -10 -5 0 -7 5 -4 10 3 6 8 10
11 10 2 0 4 -4 4 -10z"/>
<path d="M7405 8010 c-3 -5 -2 -10 4 -10 5 0 13 5 16 10 3 6 2 10 -4 10 -5 0
-13 -4 -16 -10z"/>
<path d="M6767 7963 c-4 -3 -2 -12 4 -20 9 -10 15 -10 25 -2 8 6 14 15 14 20
0 10 -34 12 -43 2z"/>
<path d="M6936 7925 c-3 -8 -1 -17 3 -20 5 -3 11 2 15 10 3 8 1 17 -3 20 -5 3
-11 -2 -15 -10z"/>
<path d="M6978 7893 c6 -2 18 -2 25 0 6 3 1 5 -13 5 -14 0 -19 -2 -12 -5z"/>
<path d="M6690 7851 c0 -5 9 -11 21 -14 16 -4 18 -3 8 9 -13 16 -29 19 -29 5z"/>
<path d="M6810 7820 c-9 -6 -10 -10 -3 -10 6 0 15 5 18 10 8 12 4 12 -15 0z"/>
<path d="M9730 13382 c-41 -20 -80 -74 -80 -111 0 -19 14 -38 51 -70 63 -54
97 -119 83 -158 -7 -22 -16 -28 -39 -28 -24 0 -34 8 -62 58 -44 74 -92 101
-170 95 -66 -6 -118 -43 -152 -111 -39 -78 -28 -187 19 -187 33 0 113 -31 147
-56 41 -31 52 -68 28 -94 -23 -26 -33 -25 -76 4 -84 57 -159 55 -233 -6 -88
-72 -110 -196 -55 -307 43 -85 111 -132 244 -167 l50 -14 99 56 c101 56 165
74 221 60 23 -6 26 -11 23 -43 -3 -36 -4 -37 -60 -49 -64 -15 -134 -48 -215
-102 l-53 -35 -43 18 c-83 34 -120 46 -133 41 -18 -7 -34 -95 -25 -142 19
-102 109 -193 201 -202 l48 -4 41 60 c22 34 51 68 63 76 27 19 69 21 86 4 22
-22 13 -47 -37 -102 -64 -71 -73 -109 -39 -174 31 -61 74 -85 146 -79 66 5
102 30 124 88 15 39 17 96 17 493 l1 449 -37 -6 c-21 -4 -69 -22 -108 -42 -77
-39 -97 -42 -115 -20 -9 11 -9 22 0 50 10 29 23 41 72 66 34 17 89 37 122 43
l61 13 0 279 c0 276 0 279 -23 312 -44 61 -122 80 -192 44z"/>
<path d="M9135 12720 c-3 -5 -1 -10 4 -10 6 0 11 5 11 10 0 6 -2 10 -4 10 -3
0 -8 -4 -11 -10z"/>
<path d="M9106 12674 c-5 -14 -4 -15 9 -4 17 14 19 20 6 20 -5 0 -12 -7 -15
-16z"/>
<path d="M9459 11807 c9 -9 79 -13 87 -5 3 3 -17 8 -45 9 -27 2 -47 1 -42 -4z"/>
<path d="M10316 13381 c-66 -44 -66 -43 -66 -392 l0 -316 39 -7 c117 -18 344
-121 413 -186 39 -38 41 -54 15 -88 -13 -16 -63 -9 -86 12 -59 53 -346 177
-372 160 -5 -3 -9 -188 -9 -432 0 -400 1 -429 19 -458 48 -79 181 -85 250 -10
32 34 41 128 18 172 -19 37 -73 87 -112 105 -39 18 -49 73 -15 84 59 19 156
-44 217 -140 24 -38 33 -45 61 -45 72 0 150 53 183 125 23 49 25 145 4 185
l-15 28 -94 -5 c-107 -7 -146 7 -146 50 0 39 19 47 107 47 137 0 224 46 276
144 30 57 29 153 -2 223 -24 53 -89 123 -115 123 -8 0 -43 -13 -78 -30 -74
-35 -136 -40 -161 -12 -37 41 -12 79 58 87 144 16 194 180 93 306 -39 48 -121
74 -183 58 -38 -11 -94 -58 -126 -108 -12 -19 -21 -23 -41 -18 -15 4 -29 16
-33 26 -9 30 38 114 90 158 l47 40 -15 34 c-8 19 -31 49 -51 67 -31 27 -44 32
-89 32 -34 0 -62 -7 -81 -19z"/>
<path d="M12842 10065 c-60 -26 -94 -57 -118 -109 -24 -51 -24 -53 -24 -409 0
-357 0 -358 24 -405 28 -56 49 -76 99 -97 52 -21 1039 -23 1090 -1 41 17 82
61 101 108 24 56 24 739 1 795 -21 50 -61 91 -110 114 -37 17 -74 19 -535 18
-409 0 -501 -2 -528 -14z m269 -278 c39 -26 66 -89 55 -130 -10 -43 -56 -87
-100 -97 -103 -23 -178 84 -131 184 31 65 113 85 176 43z m639 8 c48 -25 70
-62 70 -117 0 -43 -5 -55 -33 -83 -89 -89 -225 -26 -214 99 8 92 97 143 177
101z m-86 -431 c33 -32 11 -70 -64 -110 -31 -17 -59 -19 -220 -19 -183 0 -186
0 -243 29 -63 31 -73 43 -63 81 7 29 36 32 106 11 108 -32 342 -27 408 9 35
19 57 19 76 -1z"/>
<path d="M6295 10490 c-27 -11 -75 -40 -107 -65 -103 -82 -149 -179 -149 -315
0 -113 32 -189 120 -283 52 -56 58 -33 -65 -250 -97 -171 -111 -189 -134 -182
-27 9 -102 -37 -122 -75 -20 -38 -24 -101 -7 -131 18 -35 89 -79 127 -79 51 0
101 35 124 88 18 39 18 50 8 88 -11 38 -10 47 3 62 8 9 45 78 82 152 37 74 75
146 85 160 30 44 80 141 80 155 0 8 -17 23 -37 34 -49 25 -105 84 -134 141
-35 67 -33 175 4 252 37 75 104 134 175 154 71 21 172 15 228 -14 41 -21 42
-21 37 -2 -3 11 0 20 6 20 6 0 11 7 11 16 0 11 -5 14 -16 10 -14 -5 -15 -4 -4
9 10 12 10 15 0 15 -8 0 -11 2 -8 5 6 6 58 -18 58 -27 0 -5 7 -8 17 -8 32 0
-68 60 -124 75 -80 21 -196 19 -258 -5z m-34 -803 c-10 -9 -11 -8 -5 6 3 10 9
15 12 12 3 -3 0 -11 -7 -18z m-111 -77 c0 -5 -2 -10 -4 -10 -3 0 -8 5 -11 10
-3 6 -1 10 4 10 6 0 11 -4 11 -10z"/>
<path d="M6695 10400 c3 -5 8 -10 11 -10 2 0 4 5 4 10 0 6 -5 10 -11 10 -5 0
-7 -4 -4 -10z"/>
<path d="M6809 10183 c-1 -10 0 -26 1 -36 1 -10 -6 -27 -16 -38 -10 -11 -12
-19 -6 -19 7 0 12 -7 12 -16 0 -14 -2 -15 -17 -3 -15 12 -16 12 -9 -6 12 -33
12 -40 -4 -40 -11 0 -15 11 -15 37 0 58 -12 54 -19 -6 -8 -58 1 -83 36 -105
17 -10 22 -9 33 6 29 39 48 184 25 198 -5 3 -7 12 -4 19 3 8 1 17 -5 21 -6 3
-12 -2 -12 -12z"/>
<path d="M6741 10174 c0 -11 3 -14 6 -6 3 7 2 16 -1 19 -3 4 -6 -2 -5 -13z"/>
<path d="M6375 10236 c-64 -28 -92 -94 -69 -161 16 -47 41 -73 96 -99 26 -13
49 -33 59 -52 8 -18 34 -63 56 -100 22 -38 71 -124 109 -192 50 -90 74 -124
91 -128 35 -9 53 12 49 57 -2 21 0 39 5 39 5 0 9 4 9 9 0 10 -40 8 -58 -2 -13
-9 -42 2 -42 14 0 6 7 6 18 0 11 -6 21 -5 29 4 8 9 2 28 -26 81 -21 38 -44 69
-52 70 -33 2 -39 5 -39 15 0 6 9 8 20 4 15 -5 19 -3 14 10 -4 10 -12 14 -23 9
-9 -3 -21 -7 -28 -7 -7 0 -10 -4 -7 -9 3 -4 0 -8 -6 -8 -7 0 -5 -7 4 -16 15
-15 14 -34 -3 -34 -4 0 -20 27 -36 60 -16 33 -33 60 -39 60 -5 0 -6 3 -3 6 3
4 2 15 -3 24 -8 14 -5 19 15 22 16 4 25 0 28 -11 4 -13 5 -13 6 2 2 30 19 18
40 -28 11 -25 25 -45 31 -45 7 0 0 21 -16 48 -76 132 -71 116 -51 157 10 21
15 40 12 43 -8 8 -25 -20 -19 -30 3 -4 1 -8 -4 -8 -17 0 -21 -54 -7 -83 13
-25 13 -28 0 -23 -8 3 -15 2 -15 -2 0 -4 -10 -8 -21 -9 l-22 -2 22 20 c24 22
25 28 11 49 -8 13 -10 12 -10 -2 0 -10 -4 -18 -10 -18 -5 0 -10 -7 -10 -17 0
-9 -3 -14 -6 -10 -4 3 -1 21 5 39 l11 33 -20 -25 c-22 -28 -27 -15 -5 14 8 10
13 22 11 25 -2 3 2 12 10 19 12 11 14 9 15 -10 1 -18 2 -19 6 -5 6 22 -15 49
-31 40 -6 -3 -2 4 9 17 12 14 14 20 5 15 -13 -8 -13 -6 -1 8 7 9 11 26 8 37
-6 22 0 25 23 10 9 -6 11 -10 3 -10 -7 0 -10 -7 -6 -15 7 -19 16 -12 20 15 2
12 -5 21 -18 25 -15 5 -18 10 -11 17 8 8 16 5 28 -6 20 -21 29 -14 15 12 -24
45 -116 65 -176 38z m45 -236 c0 -5 -2 -10 -4 -10 -3 0 -8 5 -11 10 -3 6 -1
10 4 10 6 0 11 -4 11 -10z m210 -246 c0 -8 -5 -12 -10 -9 -6 4 -8 11 -5 16 9
14 15 11 15 -7z m80 -184 c-6 -11 -15 -18 -21 -14 -6 4 -6 11 2 20 17 21 31
17 19 -6z"/>
<path d="M6525 9870 c3 -5 8 -10 11 -10 2 0 4 5 4 10 0 6 -5 10 -11 10 -5 0
-7 -4 -4 -10z"/>
<path d="M6523 9274 c0 -16 23 -19 31 -5 3 5 -2 11 -12 13 -11 3 -19 0 -19 -8z"/>
<path d="M8035 7845 l-40 -14 40 6 c42 6 85 23 55 22 -8 0 -33 -7 -55 -14z"/>
<path d="M8328 7703 c7 -3 16 -2 19 1 4 3 -2 6 -13 5 -11 0 -14 -3 -6 -6z"/>
<path d="M8268 7693 c6 -2 18 -2 25 0 6 3 1 5 -13 5 -14 0 -19 -2 -12 -5z"/>
<path d="M7524 7555 c-16 -12 -17 -14 -3 -15 9 0 19 7 23 15 7 19 5 19 -20 0z"/>
<path d="M7450 7490 c-12 -16 -17 -30 -11 -30 5 0 12 9 16 19 4 12 12 18 21
14 8 -3 14 1 14 11 0 25 -16 19 -40 -14z"/>
<path d="M7787 7495 c-9 -8 -20 -15 -26 -15 -6 0 -11 -4 -11 -10 0 -5 3 -10 8
-10 12 1 55 40 50 46 -3 3 -13 -2 -21 -11z"/>
<path d="M7710 7480 c-8 -5 -11 -12 -7 -16 4 -4 15 0 24 9 18 18 8 23 -17 7z"/>
<path d="M7685 7423 c-22 -14 -43 -31 -47 -37 -5 -7 -8 -7 -8 2 0 7 -4 10 -10
7 -6 -4 -5 -11 3 -20 6 -7 14 -9 15 -4 2 5 8 9 14 9 6 0 28 16 49 35 46 42 39
45 -16 8z"/>
<path d="M7566 7305 c-11 -8 -15 -15 -9 -15 6 0 16 7 23 15 16 19 11 19 -14 0z"/>
<path d="M7530 7270 c-8 -5 -12 -12 -9 -15 4 -3 12 1 19 10 14 17 11 19 -10 5z"/>
<path d="M7407 7101 c-4 -17 -3 -21 5 -13 5 5 8 16 6 23 -3 8 -7 3 -11 -10z"/>
<path d="M7156 7081 c-4 -7 -5 -15 -2 -18 9 -9 19 4 14 18 -4 11 -6 11 -12 0z"/>
<path d="M7380 7060 c-8 -5 -12 -12 -9 -15 4 -3 12 1 19 10 14 17 11 19 -10 5z"/>
<path d="M7144 7042 c-9 -6 -26 -42 -29 -62 0 -3 -4 -10 -8 -17 -4 -6 -4 -19
-1 -30 4 -13 3 -14 -3 -5 -7 9 -19 -7 -41 -56 -18 -38 -32 -78 -32 -90 0 -11
-5 -24 -11 -27 -6 -5 -2 -13 11 -22 17 -12 19 -18 9 -29 -9 -11 -9 -18 -1 -26
9 -9 12 -7 12 7 0 17 2 16 25 -5 14 -13 25 -28 24 -34 0 -6 -3 -5 -6 2 -2 6
-8 12 -13 12 -10 0 -8 -20 4 -38 5 -8 4 -18 -3 -25 -8 -8 -11 -6 -11 7 0 10
-5 14 -11 11 -6 -4 -8 -9 -5 -13 3 -3 -2 -11 -12 -19 -16 -13 -15 -14 5 -10
13 3 26 1 29 -4 7 -12 34 -12 34 1 0 5 -8 6 -17 3 -15 -6 -16 -5 -3 9 17 18
30 14 30 -7 0 -9 6 -12 15 -9 20 8 19 -6 -2 -23 -10 -8 -13 -12 -6 -9 6 4 13
0 16 -6 3 -8 7 -6 12 7 4 11 21 53 36 93 31 79 35 97 19 87 -5 -3 -10 2 -10
12 -1 17 -1 17 -11 0 -13 -22 -29 -13 -24 13 2 11 0 20 -4 20 -4 0 -7 29 -6
65 1 45 -2 66 -12 69 -7 3 -13 10 -13 16 0 6 4 9 10 5 5 -3 8 7 7 24 -1 16 -5
27 -9 24 -5 -2 -8 3 -8 12 0 10 5 13 12 9 7 -5 9 -1 6 13 -3 11 -1 28 4 37 10
18 8 19 -8 8z m-30 -277 c3 -8 1 -15 -4 -15 -6 0 -10 7 -10 15 0 8 2 15 4 15
2 0 6 -7 10 -15z m26 -57 c0 -19 -16 -5 -17 14 -2 18 0 20 7 8 5 -8 10 -18 10
-22z"/>
<path d="M7260 6940 c0 -11 4 -20 9 -20 5 0 7 9 4 20 -3 11 -7 20 -9 20 -2 0
-4 -9 -4 -20z"/>
<path d="M7311 6949 c-2 -23 -25 -69 -35 -69 -4 0 -5 8 -2 17 6 15 4 15 -14
-2 -18 -17 -19 -20 -4 -36 10 -11 12 -19 5 -24 -6 -3 -11 1 -11 10 0 11 -5 15
-14 12 -10 -4 -13 -1 -9 9 3 7 0 14 -6 14 -19 0 -12 -27 11 -42 20 -13 21 -17
9 -46 -15 -37 -19 -38 -37 -14 -10 13 -12 13 -10 2 4 -29 24 -55 35 -45 18 19
92 198 88 214 -4 14 -5 14 -6 0z"/>
<path d="M7195 6830 c3 -5 8 -10 11 -10 2 0 4 5 4 10 0 6 -5 10 -11 10 -5 0
-7 -4 -4 -10z"/>
<path d="M7212 6813 c-6 -2 -10 -9 -6 -14 8 -14 21 -11 21 6 0 8 -1 15 -1 14
-1 0 -7 -3 -14 -6z"/>
<path d="M6946 6535 c-3 -8 -1 -15 4 -15 6 0 10 7 10 15 0 8 -2 15 -4 15 -2 0
-6 -7 -10 -15z"/>
<path d="M7055 6530 c-3 -4 2 -16 11 -25 13 -12 19 -13 24 -5 6 9 9 9 13 -1 4
-11 6 -10 6 2 1 18 -45 43 -54 29z"/>
<path d="M7025 6519 c-4 -6 -5 -12 -2 -15 2 -3 7 2 10 11 7 17 1 20 -8 4z"/>
<path d="M6930 6504 c0 -3 7 -12 15 -20 16 -17 18 -14 9 10 -6 15 -24 23 -24
10z"/>
<path d="M7127 6503 c-10 -9 -8 -33 2 -33 5 0 11 9 14 20 5 20 -3 26 -16 13z"/>
<path d="M7066 6303 c-6 -14 -5 -15 5 -6 7 7 10 15 7 18 -3 3 -9 -2 -12 -12z"/>
<path d="M7053 6263 c-3 -10 -8 -21 -10 -25 -2 -5 0 -8 5 -8 5 0 12 11 14 25
6 29 0 33 -9 8z"/>
<path d="M7030 6195 c0 -8 2 -15 4 -15 2 0 6 7 10 15 3 8 1 15 -4 15 -6 0 -10
-7 -10 -15z"/>
<path d="M6665 6021 c-3 -5 -1 -12 5 -16 5 -3 10 1 10 9 0 18 -6 21 -15 7z"/>
<path d="M6900 5819 c0 -5 5 -7 10 -4 6 3 10 8 10 11 0 2 -4 4 -10 4 -5 0 -10
-5 -10 -11z"/>
<path d="M11161 6670 c-58 -12 -119 -50 -165 -101 -106 -116 -121 -291 -37
-430 46 -76 95 -114 184 -141 124 -37 249 -6 332 83 73 78 90 125 90 249 0 95
-3 111 -28 162 -66 134 -225 209 -376 178z"/>
<path d="M7815 6830 c3 -5 8 -10 11 -10 2 0 4 5 4 10 0 6 -5 10 -11 10 -5 0
-7 -4 -4 -10z"/>
<path d="M7845 6830 c3 -5 11 -10 16 -10 6 0 7 5 4 10 -3 6 -11 10 -16 10 -6
0 -7 -4 -4 -10z"/>
<path d="M7843 6611 c-4 -18 -141 -359 -159 -398 -5 -10 32 -13 165 -13 108 0
171 4 171 10 0 6 -31 86 -69 179 -38 93 -72 183 -76 200 -8 38 -25 50 -32 22z"/>
<path d="M7560 6455 c-6 -15 -12 -31 -14 -34 -2 -3 3 -12 11 -20 13 -12 14
-11 9 7 -4 12 -2 31 4 42 7 12 9 24 6 27 -3 3 -10 -7 -16 -22z"/>
<path d="M7530 6378 c-12 -22 -12 -22 6 -6 10 10 15 20 12 24 -4 3 -12 -5 -18
-18z"/>
<path d="M7685 6300 c3 -5 8 -10 11 -10 2 0 4 5 4 10 0 6 -5 10 -11 10 -5 0
-7 -4 -4 -10z"/>
<path d="M7667 6263 c-2 -10 -8 -27 -13 -37 -5 -13 -4 -17 3 -13 14 9 35 67
24 67 -5 0 -11 -8 -14 -17z"/>
<path d="M8025 6260 c3 -5 11 -10 16 -10 6 0 7 5 4 10 -3 6 -11 10 -16 10 -6
0 -7 -4 -4 -10z"/>
<path d="M7536 5945 c-9 -26 -7 -32 5 -12 6 10 9 21 6 23 -2 3 -7 -2 -11 -11z"/>
<path d="M13902 6513 c-22 -60 -59 -151 -81 -203 l-40 -95 27 -6 c15 -3 43 -5
62 -4 19 1 83 2 142 3 l108 2 -26 58 c-14 31 -50 120 -81 197 -31 77 -59 143
-63 148 -3 4 -25 -41 -48 -100z"/>
</g>
</svg>
